<svg id="Layer_1" enable-background="new 0 0 512 512" viewBox="0 0 512 512" xmlns="http://www.w3.org/2000/svg" width="300" height="300" version="1.1" xmlns:xlink="http://www.w3.org/1999/xlink" xmlns:svgjs="http://svgjs.dev/svgjs"><g width="100%" height="100%" transform="matrix(1,0,0,1,0,0)"><g><path d="m339.9 222.5c5.8-5.8 5.8-15.2 0-21l-33.3-33.3c-5.8-5.8-15.2-5.8-21 0l-16.4 16.4.1.1c-52.3-28.8-119.4-21.1-163.8 23.3-53.8 53.8-53.8 140.9 0 194.7s140.9 53.8 194.7 0c44.4-44.4 52.1-111.5 23.2-163.8l.1.1zm-224 104.7c-4.4-4.4-4.8-11.3-1.1-16.1l20.4 20.4c1.5 1.5 3.9 1.5 5.4 0s1.5-3.9 0-5.4l-20.5-20.5 5-5 20.5 20.5c1.5 1.5 3.9 1.5 5.4 0s1.5-3.9 0-5.4l-20.5-20.5 76.7-76.7c4.8-4.8 12.6-4.8 17.4 0l29.8 29.8-35.4 35.4c-.1.1-.1.2-.2.2-10.5-7.9-25.6-7.1-35.2 2.5s-10.4 24.6-2.5 35.2c-.1.1-.2.1-.2.2l-35.2 35.2zm173.8-26.3-91.3 91.3c-4.8 4.8-12.6 4.8-17.4 0l-29.8-29.8 35.4-35.4c.1-.1.1-.2.2-.2 10.5 7.9 25.6 7.1 35.2-2.5s10.4-24.6 2.5-35.2c.1-.1.2-.1.2-.2l35.4-35.4 29.8 29.8c4.7 5 4.7 12.8-.2 17.6z" fill="#ffffff" fill-opacity="1" data-original-color="#000000ff" stroke="none" stroke-opacity="1"/><path d="m446.2 134.2c-1.4-3.4-4.7-5.6-8.4-5.4l-53 2.4 3.5-51.6c.2-3.6-1.8-7-5.1-8.4s-7.2-.7-9.7 1.9l-31.1 32.3-23.9-32.7c-2.1-2.8-5.7-4.1-9.1-3.3-3.4.9-5.9 3.7-6.4 7.2l-7.6 56.3c-.6 4.7 2.7 9 7.4 9.7 4.7.6 9-2.7 9.7-7.4l4.8-35.1 17.3 23.7c1.5 2.1 3.8 3.3 6.4 3.5 2.5.2 5-.8 6.8-2.6l21.9-22.7-2.6 37.7c-.2 2.4.7 4.8 2.4 6.6s4.1 2.7 6.5 2.6l37.9-1.7-23 20c-1.8 1.6-2.9 3.8-3 6.2s.8 4.7 2.5 6.4l10.7 10.7-35.5-4.5c-4.7-.6-9 2.7-9.6 7.5-.6 4.7 2.7 9 7.5 9.6l60.5 7.6c.4 0 .7.1 1.1.1 3.2 0 6.3-1.8 7.7-4.8 1.6-3.3 1-7.3-1.6-9.9l-22-22 34.7-30.1c2.7-2.5 3.7-6.4 2.3-9.8z" fill="#ffffff" fill-opacity="1" data-original-color="#000000ff" stroke="none" stroke-opacity="1"/><path d="m212.1 249.3c1.5 1.5 3.9 1.5 5.3 0l4.9-4.9c1.5-1.5 1.5-3.9 0-5.3l-4.9-4.9c-1.5-1.5-3.9-1.5-5.3 0l-4.9 4.9c-1.5 1.5-1.5 3.9 0 5.3z" fill="#ffffff" fill-opacity="1" data-original-color="#000000ff" stroke="none" stroke-opacity="1"/></g></g></svg>