<svg id="Layer_1" enable-background="new 0 0 72 72" height="300" viewBox="0 0 72 72" width="300" xmlns="http://www.w3.org/2000/svg" version="1.1" xmlns:xlink="http://www.w3.org/1999/xlink" xmlns:svgjs="http://svgjs.dev/svgjs"><g width="100%" height="100%" transform="matrix(1,0,0,1,0,0)"><g><path d="m16.3 51.8c-2.7 0-4.9 2.2-4.9 4.9s2.2 4.9 4.9 4.9 4.9-2.2 4.9-4.9-2.2-4.9-4.9-4.9zm0 7.4c-1.4 0-2.5-1.1-2.5-2.5s1.1-2.5 2.5-2.5 2.5 1.1 2.5 2.5-1.2 2.5-2.5 2.5z" fill="#ffffff" fill-opacity="1" data-original-color="#000000ff" stroke="none" stroke-opacity="1"/><path d="m21.2 33.5h-2.5c-.6 0-1.2.3-1.6.8l-5.5 7.5c3.4.1 6.7.2 9.6.4z" fill="#ffffff" fill-opacity="1" data-original-color="#000000ff" stroke="none" stroke-opacity="1"/><path d="m48.4 43.1-8.7-9c-.4-.4-.9-.6-1.4-.6h-2.3v9.2h.8c4.7.2 8.5.3 11.6.4z" fill="#ffffff" fill-opacity="1" data-original-color="#000000ff" stroke="none" stroke-opacity="1"/><path d="m34 33.5h-10.8v8.7c4 .1 7.6.3 10.8.4z" fill="#ffffff" fill-opacity="1" data-original-color="#000000ff" stroke="none" stroke-opacity="1"/><path d="m54.1 51.8c-2.7 0-4.9 2.2-4.9 4.9s2.2 4.9 4.9 4.9 4.9-2.2 4.9-4.9-2.2-4.9-4.9-4.9zm0 7.4c-1.4 0-2.5-1.1-2.5-2.5s1.1-2.5 2.5-2.5 2.5 1.1 2.5 2.5-1.1 2.5-2.5 2.5z" fill="#ffffff" fill-opacity="1" data-original-color="#000000ff" stroke="none" stroke-opacity="1"/><path d="m61.1 45.7c-4.9-.3-16.7-.7-55-2.1-1.1 0-2.1.8-2.1 2v5c0 1.7 1.2 3.2 2.9 3.5l2.8.5c.9-2.7 3.5-4.7 6.5-4.7 3.5 0 6.3 2.6 6.8 5.9h24.2c.5-3.3 3.4-5.9 6.8-5.9s6.3 2.5 6.8 5.8l3.7-.2c.8 0 1.4-.7 1.4-1.5v-3.2c.1-2.7-2.1-5-4.8-5.1z" fill="#ffffff" fill-opacity="1" data-original-color="#000000ff" stroke="none" stroke-opacity="1"/><path d="m54.4 37.6c7.5 0 13.6-6.1 13.6-13.6s-6.1-13.6-13.6-13.6-13.6 6.1-13.6 13.6 6.1 13.6 13.6 13.6zm0-25.2c6.4 0 11.6 5.2 11.6 11.6s-5.2 11.6-11.6 11.6-11.6-5.2-11.6-11.6 5.2-11.6 11.6-11.6z" fill="#ffffff" fill-opacity="1" data-original-color="#000000ff" stroke="none" stroke-opacity="1"/><path d="m48.6 25.4c.6 0 1-.4 1-1 0-2 1.2-3.7 2.9-4.6l-.3.4c-.3.5-.2 1.1.3 1.4s1.1.2 1.4-.3l1.6-2.4c.3-.4.1-1.1-.3-1.4l-2.4-1.6c-.5-.3-1.1-.2-1.4.3s-.2 1.1.3 1.4l.4.2c-2.6 1-4.4 3.6-4.4 6.5-.1.6.3 1.1.9 1.1z" fill="#ffffff" fill-opacity="1" data-original-color="#000000ff" stroke="none" stroke-opacity="1"/><path d="m57.2 28.7c-1.6.9-3.7 1-5.4-.2h.5c.6 0 1-.4 1-1s-.4-1-1-1l-2.9-.1c-.5 0-1 .4-1 1l-.1 2.9c0 .6.4 1 1 1s1-.4 1-1v-.4c2.2 1.7 5.3 2.1 7.9.6 1.1-.7.1-2.4-1-1.8z" fill="#ffffff" fill-opacity="1" data-original-color="#000000ff" stroke="none" stroke-opacity="1"/><path d="m57.2 20c1.7 1 2.6 2.9 2.5 4.8l-.2-.4c-.3-.5-.9-.7-1.3-.4-.5.3-.7.9-.4 1.3l1.3 2.6c.3.5.9.7 1.3.4l2.6-1.3c.5-.3.7-.9.4-1.3-.3-.5-.9-.7-1.3-.4l-.4.2c.4-2.8-.9-5.6-3.4-7.1-.5-.3-1.1-.1-1.4.4-.4.3-.2.9.3 1.2z" fill="#ffffff" fill-opacity="1" data-original-color="#000000ff" stroke="none" stroke-opacity="1"/></g></g></svg>