<svg id="Line" viewBox="0 0 64 64" xmlns="http://www.w3.org/2000/svg"><path d="m25.02057 32.00415c-6.13281-.09028-9.39066 7.58731-4.97015 11.94561 2.72931 2.72918 7.16984 2.72918 9.89928-.00005 4.40496-4.34339 1.18691-11.9994-4.92914-11.94556zm3.51507 10.53149c-4.82116 4.52295-11.59438-2.2508-7.07121-7.07137.71916-.71916 1.60606-1.1688 2.53557-1.35728v.89301c0 .55225.44775 1 1 1s1-.44775 1-1v-.89301c3.79454.65133 5.36672 5.76108 2.53564 8.42865zm28.46436-38.53564s-12 0-12 0c-.55225 0-1 .44775-1 1v1h-2c-1.6543 0-3 1.3457-3 3v4h-29c-.55225 0-1 .44775-1 1v14h-4c-.55225 0-1 .44775-1 1v22c0 2.39825 1.69897 4.40417 3.95557 4.88641v1.11359c0 1.6543 1.3457 3 3 3h4c1.6543 0 3-1.3457 3-3v-1s14.04443 0 14.04443 0v1c0 1.6543 1.3457 3 3 3h4c1.6543 0 3-1.3457 3-3v-1.10107c2.2793-.46466 4-2.4845 4-4.89893v-22c0-.55225-.44775-1-1-1h-4v-19c0-.55127.44873-1 1-1h2v1c0 .55225.44775 1 1 1h12c3.94375-.11046 3.97945-5.87487 0-6zm-28 24v-3h4v3zm-6 0v-3h4v3zm-6 0v-3h4v3zm-6-8h4v3h-4zm6 0h4v3h-4zm10-2h-4v-3h4zm2-3h4v3h-4zm-2 5v3h-4v-3zm-6-2h-4v-3h4zm8 5v-3h4v3zm6-3h4v3h-4zm4-2h-4v-3h4zm-24-3v3h-4v-3zm-4 10h4v3h-4zm4.95557 32c0 .55127-.44873 1-1 1h-4c-.55127 0-1-.44873-1-1v-1h6zm23.04443 1h-4c-.55127 0-1-.44873-1-1v-1h6v1c0 .55127-.44873 1-1 1zm5-10h-34c-.55225 0-1 .44775-1 1s.44775 1 1 1h34v1c0 1.6543-1.3457 3-3 3h-32c-1.6543 0-3-1.3457-3-3v-21c5.65818.00076 32.33961-.00055 38 0zm-9-20v-3h4v3zm22-20h-11v-2h11c1.31157.0228 1.31599 1.97633 0 2z"/></svg>