<svg id="Layer_1" viewBox="0 0 64 64" xmlns="http://www.w3.org/2000/svg" data-name="Layer 1" width="300" height="300" version="1.1" xmlns:xlink="http://www.w3.org/1999/xlink" xmlns:svgjs="http://svgjs.dev/svgjs"><g width="100%" height="100%" transform="matrix(1,0,0,1,0,0)"><path d="m61.41168 50.96326c.00006.00006-15.914-28.79828-15.914-28.79828-1.3819-2.71906-5.62073-2.72504-7.00195.00012 0-.00012-15.91455 28.79822-15.91455 28.79822-1.51233 2.53448.54565 6.03497 3.5011 5.93451-.00012.00006 31.82898.00006 31.82898.00006 2.95007.09747 5.01807-3.39789 3.50043-5.93463zm-19.41485.93463c-3.9552-.10315-3.95599-5.8963-.00012-6 3.95508.10309 3.95587 5.8963.00012 6zm2.99987-11.00012c-.10364 3.95764-5.8974 3.95312-6 .00012v-10c0-1.6543 1.3457-3 3-3s3 1.3457 3 3c0 0 0 10 0 9.99988z" fill="#ffffff" fill-opacity="1" data-original-color="#000000ff" stroke="none" stroke-opacity="1"/><path d="m25.07772 37.10008c.02545-1.31384 1.97491-1.31342 2 0v1.58997l2-3.62c.01001-.32996.17999-.62.44-.79999.01001 0 1.66003-3 1.66003-3-.46045-.34534-.89459-.65509-1.31165-.94641.77789-2.13702-.65143-4.57715-2.78839-5.08154v-12.09277c3.9126.34625 7.38104 2.70154 9.76001 6.26074.40826.79303 1.72412.57324 1.84003-.32007-.01758-1.68518 1.24695-3.18982 3.02002-3.17993 1.64996 0 2.99994 1.34998 2.99994 3 0 .56.44 1 1 1 .55005 0 1-.44 1-1-.02771-5.24811-7.11768-6.87659-9.45996-2.26001-2.06061-2.46265-4.68335-4.23328-7.60199-5.04553.90643-.78717 2.54407-4.23639.44208-4.50452-.55237.00006-1.00012.44781-1.00012 1.00006-.10382 3.95624-5.89691 3.95477-6-.00012 0-.55212-.44775-.99988-1-.99988-2.0979.2406-.46124 3.73456.44116 4.50348-3.06024.85217-5.78784 2.76947-7.90442 5.42407-2.19421-4.81555-9.5083-3.28467-9.53668 2.07257.02295 1.31396 1.97729 1.31451 1.99994-.00018.17657-4.06079 5.95795-3.91766 6.02698.13367-1.25708 2.12451-2.17645 4.56042-2.65057 7.20264-3.07312-2.96161-8.43542-.63782-8.37634 3.66388.0235 1.3147 1.97711 1.31403 1.99994-.00018.10388-3.95624 5.89697-3.95471 6 .00012-.03265 2.41205.26764 4.84912.93762 7.09192-3.28162-.71533-6.47687 2.46649-5.80762 5.75378.09058.54724.62225.91168 1.15417.81635.54443-.09277.91016-.61035.81641-1.1543-.30493-1.58441.85437-3.22388 2.45026-3.46387.78607-.13477 1.58392.04492 2.23871.50684.25458.3858.39398.86523.63055 1.26917 2.05994 4.03003 5.16992 6.92004 8.7699 8.29004.64856-1.18268 3.11395-5.64062 3.81-6.90002v-5.20996zm-11.51001 1.32995c-4.39166-10.09808 1.22705-24.47491 11.51001-25.26666v12.07874c-2.1366.50409-3.56604 2.94427-2.78864 5.08087-2.56683 1.78778-6.10681 4.61133-8.72137 8.10706zm9.51001 4.67005c-.02441 1.31122-1.97467 1.31549-2 0 .00189-.08313-.00134-8.02789 0-8.00006.02448-1.31116 1.97473-1.31549 2 .00006z" fill="#ffffff" fill-opacity="1" data-original-color="#000000ff" stroke="none" stroke-opacity="1"/><path d="m30.07772 22.10008c.1037 3.95587 5.89691 3.95508 6-.00012-.1037-3.95575-5.89685-3.95496-6 .00012z" fill="#ffffff" fill-opacity="1" data-original-color="#000000ff" stroke="none" stroke-opacity="1"/><path d="m18.07772 23.10008c-3.95587.1037-3.95508 5.89685.00012 6 3.95575-.1037 3.95496-5.89691-.00012-6z" fill="#ffffff" fill-opacity="1" data-original-color="#000000ff" stroke="none" stroke-opacity="1"/></g></svg>