<svg id="Layer_1" viewBox="0 0 512 512" xmlns="http://www.w3.org/2000/svg" data-name="Layer 1" width="300" height="300" version="1.1" xmlns:xlink="http://www.w3.org/1999/xlink" xmlns:svgjs="http://svgjs.dev/svgjs"><g width="100%" height="100%" transform="matrix(1,0,0,1,0,0)"><path d="m312.622 408.943h-263.934v22.337h268.186c-2.381-7.058-3.855-14.57-4.252-22.337zm82.318-72.539c37.758 0 68.372 30.643 68.372 68.4s-30.614 68.4-68.372 68.4-68.4-30.614-68.4-68.4 30.614-68.4 68.4-68.4zm-277.851-320.399c37.786 0 68.4 30.614 68.4 68.4s-30.614 68.4-68.4 68.4-68.4-30.614-68.4-68.4 30.613-68.4 68.4-68.4zm-108.085 0c0-3.855 3.146-7.002 7.002-7.002 3.883 0 7.001 3.146 7.001 7.002v472.989h472.989c3.884 0 7.001 3.146 7.001 7.001 0 3.884-3.118 7.002-7.001 7.002h-479.991c-3.855 0-7.002-3.118-7.002-7.002v-479.99zm101.083 17.858c0-3.883 3.146-7.001 7.002-7.001s7.001 3.118 7.001 7.001v8.391c8.504 1.899 16.895 7.229 23.272 17.348 2.041 3.288 1.049 7.597-2.211 9.638s-7.569 1.077-9.61-2.183c-10.573-16.838-29.395-12.699-34.667-4.394-1.446 2.296-1.559 5.102.539 7.824 5.584 7.2 32.825 6.973 42.378 19.304 12.387 15.987-1.333 33.76-19.701 37.049v8.107c0 3.884-3.146 7.002-7.001 7.002s-7.002-3.118-7.002-7.002v-8.391c-8.504-1.927-16.895-7.228-23.244-17.376-2.069-3.26-1.077-7.569 2.183-9.609 3.26-2.069 7.569-1.077 9.61 2.183 7.568 12.019 20.551 14.428 29.99 8.731 4.394-2.636 7.937-7.229 4.139-12.161-5.584-7.2-32.797-6.973-42.378-19.332-12.387-15.931 1.275-33.732 19.701-37.021v-8.107zm243.893 383.244c-2.721-2.75-2.721-7.171 0-9.893 2.75-2.75 7.172-2.75 9.921 0l14.145 14.145 47.934-47.934c2.721-2.75 7.143-2.75 9.893 0 2.721 2.721 2.721 7.171 0 9.893l-52.895 52.866c-1.984 2.013-3.969 2.183-6.435 1.899-1.673-.198-3.458-1.871-3.458-1.899zm-228.558-192.104 35.717-36.964c2.665 3.884 6.094 7.172 10.035 9.723l-36.425 37.701c-2.381-4.053-5.556-7.625-9.326-10.46zm-21.175 6.945c11.792 0 21.288 9.581 21.288 21.288s-9.524 21.317-21.288 21.317-21.316-9.553-21.316-21.317 9.553-21.288 21.316-21.288zm85.975-85.238c18.963 0 28.346 22.961 15.108 36.312-13.351 13.465-36.425 3.94-36.425-14.995 0-11.764 9.553-21.316 21.317-21.316zm85.975 85.238c11.735 0 21.316 9.496 21.316 21.288s-9.553 21.317-21.316 21.317c-18.964 0-28.346-22.961-15.137-36.312 3.884-3.883 9.213-6.293 15.137-6.293zm85.975-103.351c11.764 0 21.317 9.524 21.317 21.288 0 18.142-21.231 27.808-34.923 16.384-4.706-3.912-7.682-9.808-7.682-16.384 0-11.764 9.524-21.288 21.288-21.288zm-142.469 58.819 36.822 36.51c-3.883 2.608-7.229 5.981-9.808 9.921l-36.822-36.51c3.883-2.608 7.228-6.01 9.808-9.921zm73.276 34.753 41.726-50.145c2.919 3.657 6.576 6.69 10.715 8.929l-41.726 50.145c-2.948-3.657-6.576-6.69-10.715-8.929zm6.576 172.771v-90.737h-44.674v90.737zm88.016-72.198v-115.795h-44.674v133.965c12.416-10.12 27.808-16.667 44.674-18.17zm-176.031 72.198v-174.132h-44.674v174.132zm-88.016 0v-90.737h-44.674v90.737z" fill-rule="evenodd" fill="#ffffff" fill-opacity="1" data-original-color="#000000ff" stroke="none" stroke-opacity="1"/></g></svg>