<svg id="Layer_1" enable-background="new 0 0 512 512" viewBox="0 0 512 512" xmlns="http://www.w3.org/2000/svg"><g><g><g><g><g><path d="m120.4 381.8c-2.9 0-5.9-.3-8.9-.9-22.7-4.9-37.1-27.3-32.2-50 2.4-11 8.9-20.4 18.3-26.5 9.5-6.1 20.7-8.1 31.7-5.8 11 2.4 20.4 8.9 26.5 18.3 6.1 9.5 8.1 20.7 5.8 31.7-4.3 19.7-21.8 33.2-41.2 33.2zm0-74.5c-6.1 0-12.2 1.8-17.4 5.1-7.3 4.7-12.3 11.9-14.1 20.4-3.7 17.4 7.4 34.7 24.7 38.4 8.4 1.8 17.1.2 24.3-4.4 7.3-4.7 12.3-11.9 14.1-20.4 1.8-8.4.2-17.1-4.4-24.3-4.7-7.3-11.9-12.3-20.4-14.1-2.2-.5-4.5-.7-6.8-.7z"/></g><g><path d="m120.3 360.3c-11.4 0-20.7-9.3-20.7-20.7s9.3-20.7 20.7-20.7 20.7 9.3 20.7 20.7c0 11.5-9.3 20.7-20.7 20.7zm0-31.6c-6 0-10.9 4.9-10.9 10.9s4.9 10.9 10.9 10.9 10.9-4.9 10.9-10.9c.1-6-4.8-10.9-10.9-10.9z"/></g></g><g><g><path d="m388.3 381.7c-23.2 0-42.1-18.9-42.1-42.1s18.9-42.1 42.1-42.1 42.1 18.9 42.1 42.1-18.8 42.1-42.1 42.1zm0-74.4c-17.8 0-32.4 14.5-32.4 32.4s14.5 32.4 32.4 32.4c17.8 0 32.4-14.5 32.4-32.4s-14.5-32.4-32.4-32.4z"/></g><g><path d="m388.3 360.3c-11.4 0-20.7-9.3-20.7-20.7s9.3-20.7 20.7-20.7 20.7 9.3 20.7 20.7c0 11.5-9.2 20.7-20.7 20.7zm0-31.6c-6 0-10.9 4.9-10.9 10.9s4.9 10.9 10.9 10.9 10.9-4.9 10.9-10.9c.1-6-4.8-10.9-10.9-10.9z"/></g></g></g><g><path d="m63.5 289.6h-17.6c-2.7 0-4.9-2.2-4.9-4.9s2.2-4.9 4.9-4.9h17.6c4.7 0 8.6-3.9 8.6-8.6s-3.9-8.6-8.6-8.6h-17.6c-2.7 0-4.9-2.2-4.9-4.9s2.2-4.9 4.9-4.9h17.6c10.1 0 18.4 8.2 18.4 18.4-.1 10.2-8.3 18.4-18.4 18.4z"/></g><g><path d="m466.1 289.5h-9.3c-16.5 0-29.9-13.4-29.9-29.9 0-3.7 3-6.8 6.8-6.8h32.3c2.7 0 4.9 2.2 4.9 4.9s-2.2 4.9-4.9 4.9h-29c1.4 9.7 9.8 17.2 19.9 17.2h9.3c2.7 0 4.9 2.2 4.9 4.9-.1 2.5-2.3 4.8-5 4.8z"/></g><g><path d="m466 316.3h-53c-2.7 0-4.9-2.2-4.9-4.9s2.2-4.9 4.9-4.9h53c2.7 0 4.9 2.2 4.9 4.9s-2.2 4.9-4.9 4.9z"/></g><g><path d="m95.9 316.3h-50c-2.7 0-4.9-2.2-4.9-4.9s2.2-4.9 4.9-4.9h50c2.7 0 4.9 2.2 4.9 4.9s-2.2 4.9-4.9 4.9z"/></g><g><path d="m363.9 316.3h-219.1c-2.7 0-4.9-2.2-4.9-4.9s2.2-4.9 4.9-4.9h219.1c2.7 0 4.9 2.2 4.9 4.9s-2.2 4.9-4.9 4.9z"/></g><g><path d="m351.2 344.5h-193.5c-2.7 0-4.9-2.2-4.9-4.9s2.2-4.9 4.9-4.9h193.6c2.7 0 4.9 2.2 4.9 4.9-.1 2.8-2.3 4.9-5 4.9z"/></g><g><path d="m450.2 344.5h-24.6c-2.7 0-4.9-2.2-4.9-4.9s2.2-4.9 4.9-4.9h24.6c6 0 10.8-4.9 10.8-10.8v-75.8c0-8.2-6.4-15.2-14.6-15.7-.1 0-.1 0-.1 0l-78.5-7.5c-1.7-.2-3.2-1.2-3.9-2.7l-1.8-3.5c-3.3-6.4-6.7-12-10.3-17.1-1.5-2.2-1-5.3 1.2-6.8s5.3-1 6.8 1.2c3.8 5.4 7.4 11.3 11 18.2l.6 1.2 75.8 7.3c13.2 1 23.6 12.2 23.6 25.4v75.7c0 11.5-9.3 20.7-20.6 20.7z"/></g><g><path d="m83.1 344.5h-21.4c-11.3 0-20.6-9.2-20.6-20.6v-76.5c0-12.8 9.6-23.7 22.3-25.3l32.1-6.3.7-1.3c12.9-25.4 32.6-46.6 56.8-61.5s52.1-22.7 80.5-22.7 56.3 7.8 80.6 22.7c12.1 7.4 23.3 16.6 33.2 27.3 1.8 2 1.7 5.1-.3 6.9s-5.1 1.7-6.9-.3c-9.3-10.1-19.8-18.7-31.1-25.6-22.9-14-49-21.3-75.5-21.3-54.6 0-103.8 30.2-128.6 78.8l-1.8 3.5c-.7 1.3-1.9 2.3-3.4 2.6l-34.6 6.8c-.1 0-.2.1-.4.1-8 1-14 7.7-14 15.7v76.5c0 6 4.9 10.8 10.8 10.8h21.5c2.7 0 4.9 2.2 4.9 4.9s-2.1 4.8-4.8 4.8z"/></g></g><g><path d="m196.7 255.3c-1.1 0-2-.4-2.9-.9l-39.8-29.6c-1.2-.9-2-2.4-2-3.9s.7-3 2-3.9l39.8-29.7c1.5-1.1 3.5-1.3 5.1-.5s2.7 2.5 2.7 4.4v15h102.9l60.4-44c6.7-4.8 15.7-3.3 20.5 3.2 4.8 6.7 3.3 15.7-3.2 20.5l-66.8 48.7c-.8.6-1.8.9-2.9.9h-110.9v14.9c0 1.9-1.1 3.5-2.7 4.4-.7.4-1.5.5-2.2.5zm-31.7-34.5 26.8 19.9v-10.1c0-2.7 2.2-4.9 4.9-4.9h114.1l65.5-47.7c2.2-1.6 2.6-4.6 1.1-6.9-1.6-2.2-4.6-2.6-6.8-1l-61.7 44.9c-.8.6-1.9.9-2.9.9h-109.4c-2.7 0-4.9-2.2-4.9-4.9v-10.2z"/></g></g></svg>