<svg id="Layer_1" enable-background="new 0 0 60 60" viewBox="0 0 60 60" xmlns="http://www.w3.org/2000/svg" width="300" height="300" version="1.1" xmlns:xlink="http://www.w3.org/1999/xlink" xmlns:svgjs="http://svgjs.dev/svgjs"><g width="100%" height="100%" transform="matrix(1,0,0,1,0,0)"><g><path d="m36.1052284 24.085022c.1000366-1.5599976 1.4000244-2.7999878 2.9899902-2.7999878h1.8200073v-3.1400146c0-.5499878-.4500122-1-1-1h-6.0100098v-2.5400391c0-4.7399902-3.8599834-8.6099854-8.6099834-8.6099854s-8.6099854 3.8699951-8.6099854 8.6099854v2.5400391h-6.0100107c-.5499878 0-1 .4500122-1 1v27.6999512h31.2399894v-1.8299561c-2.8999634-1.960022-7.6099854-5.8300171-7.6099854-10.3600464v-6.5799561c0-1.5800171 1.2399903-2.8800049 2.7999878-2.9899902zm-4.2000103-6.9400025h-13.2199707v-2.5400391c0-3.6399536 2.9699707-6.6099854 6.6099854-6.6099854 3.6500244 0 6.6099854 2.9700317 6.6099854 6.6099854v2.5400391zm11.2499981 35.5099488-1.7999878-4.8099976h-32.1199941l-1.7999878 4.8099976c-.1099854.3099976-.0700073.6500244.1199951.9200439.1799927.2699585.4899902.4299927.8200073.4299927h33.8399658c.3300171 0 .6300049-.1600342.8200073-.4299927.1900015-.2700195.2300406-.6100464.1199942-.9200439z" fill="#ffffff" fill-opacity="1" data-original-color="#000000ff" stroke="none" stroke-opacity="1"/><path d="m51.625248 26.07934c-.9899902 0-1.7900391-.7999878-1.7900391-1.789978 0-.5499878-.4399414-1-1-1h-9.7399902c-.5599976 0-1 .4500122-1 1 0 .9899902-.7999878 1.789978-1.789978 1.789978-.5499878 0-1 .4400024-1 1v6.580019c0 4.6599731 7.3200073 9.1099854 8.1500244 9.5999756.1599731.0900269.3299561.1400146.5099487.1400146.1800537 0 .3500366-.0499878.5100098-.1400146.8300171-.4899902 8.1500244-4.9400024 8.1500244-9.5999756v-6.580019c0-.5599976-.4500123-1-1-1zm-3.848877 5.1618652-4.0683594 4.0693378c-.1953125.1953125-.4511719.2929688-.7070313.2929688s-.5117188-.0976563-.7070313-.2929688l-2.140625-2.1396484c-.390625-.390625-.390625-1.0234375 0-1.4140644.390625-.390625 1.0234375-.390625 1.4140625 0l1.4335938 1.4326191 3.3613281-3.3623066c.390625-.390625 1.0234375-.390625 1.4140625 0s.3906251 1.0234375.0000001 1.4140625z" fill="#ffffff" fill-opacity="1" data-original-color="#000000ff" stroke="none" stroke-opacity="1"/></g></g></svg>