<svg id="Layer_1" enable-background="new 0 0 64 64" viewBox="0 0 64 64" xmlns="http://www.w3.org/2000/svg" width="300" height="300" version="1.1" xmlns:xlink="http://www.w3.org/1999/xlink" xmlns:svgjs="http://svgjs.dev/svgjs"><g width="100%" height="100%" transform="matrix(1,0,0,1,0,0)"><g><path d="m40.911869 30.2450256h8.8499756l-4.6999511-6.7999878h-4.1500245z" fill="#ffffff" fill-opacity="1" data-original-color="#000000ff" stroke="none" stroke-opacity="1"/><path d="m56.5218544 34.2320862c0-.4709473-.3285522-.8780518-.7888794-.977478l-4.5811157-.989563-.0100098-.0200195h-11.2299805c-.5599976 0-1-.4500122-1-1v-7.7999878h-4.0100098v11.0700073h-23.0899676c-.5523071 0-1 .4476929-1 1v4.8800048c0 .5522461.4476929 1 1 1h1.7299805c1.2099609-1.6199951 3.1599731-2.6700439 5.3399658-2.6700439 2.1900024 0 4.1400146 1.0500488 5.3500366 2.6700439h17.5999775c1.210022-1.6199951 3.1600342-2.6700439 5.3500366-2.6700439 2.1799927 0 4.1300049 1.0500488 5.3399658 2.6700439h4z" fill="#ffffff" fill-opacity="1" data-original-color="#000000ff" stroke="none" stroke-opacity="1"/><path d="m12.3424091 27.0960999c.5605469-1.1650391.2299805-2.5888672-.7861328-3.3867188l-.4570313-.359375 4.9103394-5.2387085 3.9472656 9.8537598h-2.414978v4.5499878h11.459961v-4.5499878h-2.112854l-8.7770997-14.1239014-3.2800293 1.3300171.3572388.8917847-6.2949219 6.7157592c-.1918945.2041016-.2890625.4794922-.2675781.7597656.0209961.2792969.1586914.5371094.3793945.7099609l1.3149414 1.0332031c.2836914.2236328.3759766.6210938.2197266.9472656-.1625977.3349609-.5400391.5097656-.9023438.4111328l-2.4980464-.6777344c-.5322266-.1494141-1.0825195.1708984-1.2270508.703125-.1445313.5332031.1704102 1.0820313.7036133 1.2265625l2.4970698.6777344c.2426758.0664063.4873047.0976563.7290039.0976563 1.0439454.0000001 2.0283204-.5927733 2.4995118-1.5712889z" fill="#ffffff" fill-opacity="1" data-original-color="#000000ff" stroke="none" stroke-opacity="1"/><path d="m10.1718769 43.39505c-.5523071 0-1 .4476929-1 1v2.0899658c0 .5522461.4476929 1 1 1h2.3200073c-.210022-.6400146-.3200073-1.3299561-.3200073-2.039978s.1099854-1.4000244.3200073-2.0499878z" fill="#ffffff" fill-opacity="1" data-original-color="#000000ff" stroke="none" stroke-opacity="1"/><path d="m25.2818623 43.39505c.210022.6499634.3200073 1.3399658.3200073 2.0499878s-.1099854 1.3999634-.3200073 2.039978h15.5000019c-.210022-.6400146-.3200073-1.3299561-.3200073-2.039978s.1099854-1.4000244.3200073-2.0499878z" fill="#ffffff" fill-opacity="1" data-original-color="#000000ff" stroke="none" stroke-opacity="1"/><path d="m57.121891 43.39505h-3.5500488c.210022.6499634.3200073 1.3399658.3200073 2.0499878s-.1099854 1.3999634-.3200073 2.039978h3.5500488c.5523071 0 1-.4477539 1-1v-2.0899658c0-.5523071-.4476928-1-1-1z" fill="#ffffff" fill-opacity="1" data-original-color="#000000ff" stroke="none" stroke-opacity="1"/><circle cx="18.885" cy="45.443" r="4.716" fill="#ffffff" fill-opacity="1" data-original-color="#000000ff" stroke="none" stroke-opacity="1"/><circle cx="47.178" cy="45.443" r="4.716" fill="#ffffff" fill-opacity="1" data-original-color="#000000ff" stroke="none" stroke-opacity="1"/></g></g></svg>