<?xml version="1.0"?>
<svg xmlns="http://www.w3.org/2000/svg" id="icons" viewBox="0 0 64 64"><path d="M58.57,30.42H55.13V24.48a1,1,0,0,0-1-1H51V6.69A3.72,3.72,0,0,0,47.29,3H16.58a3.72,3.72,0,0,0-3.73,3.69V23.48H9.74a1,1,0,0,0-1,1v5.94H5.31a2.36,2.36,0,0,0-2.37,2.35v5.07a2.36,2.36,0,0,0,2.37,2.35H8.74v11.4a3.73,3.73,0,0,0,3.74,3.7h.37v3.36A2.36,2.36,0,0,0,15.21,61H23.1a2.36,2.36,0,0,0,2.37-2.35V55.29H38.4v3.36A2.36,2.36,0,0,0,40.77,61h7.89A2.36,2.36,0,0,0,51,58.65V55.29h.37a3.72,3.72,0,0,0,3.73-3.7V40.19h3.44a2.36,2.36,0,0,0,2.37-2.35V32.77A2.36,2.36,0,0,0,58.57,30.42ZM14.85,6.69A1.72,1.72,0,0,1,16.58,5H47.29A1.72,1.72,0,0,1,49,6.69V23.48H45.56V10.73c0-1.73-1.1-3.08-2.5-3.08H20.81c-1.39,0-2.49,1.35-2.49,3.08V23.48H14.85Zm5.47,16.79V10.73c0-.67.34-1.08.49-1.08H43.06c.15,0,.5.41.5,1.08V23.48Zm-15,14.71a.36.36,0,0,1-.37-.35V32.77a.35.35,0,0,1,.37-.35H8.74v5.77ZM23.47,58.65a.36.36,0,0,1-.37.35H15.21a.36.36,0,0,1-.36-.35V55.29h8.62Zm25.56,0a.37.37,0,0,1-.37.35H40.77a.37.37,0,0,1-.37-.35V55.29H49Zm2.37-5.36H12.48a1.72,1.72,0,0,1-1.74-1.7V46.73h5.39a1,1,0,1,0,0-2H10.74V25.48H53.13V44.73H33.2a1,1,0,0,0,0,2H53.13v4.86A1.72,1.72,0,0,1,51.4,53.29Zm7.54-15.45a.37.37,0,0,1-.37.35H55.13V32.42h3.44a.36.36,0,0,1,.37.35Z"/><path d="M24.47,41.64a4.09,4.09,0,1,0,4.14,4.09A4.13,4.13,0,0,0,24.47,41.64Zm0,6.18a2.09,2.09,0,1,1,2.14-2.09A2.11,2.11,0,0,1,24.47,47.82Z"/></svg>
