<svg id="Layer_1" enable-background="new 0 0 512 512" viewBox="0 0 512 512" xmlns="http://www.w3.org/2000/svg" width="300" height="300" version="1.1" xmlns:xlink="http://www.w3.org/1999/xlink" xmlns:svgjs="http://svgjs.dev/svgjs"><g width="100%" height="100%" transform="matrix(1,0,0,1,0,0)"><path clip-rule="evenodd" d="m24.98 256.52v104.77h81.02c2.98-22.66 22.38-40.22 45.82-40.22 23.48 0 42.88 17.56 45.82 40.22h16.09c10.45 0 18.99-8.5 18.99-18.96v-24.81c0-43.86-17.76-81.2-51.33-107.98-40.76-32.49-101.65-46-156.41-34.98v19.01c6.9-1.28 14.09-2.18 21.36-2.7 1.67-.12 3.31.46 4.53 1.6 1.18 1.14 1.88 2.72 1.88 4.39v53.66c0 3.31-2.65 6-6 6zm221.22-55.67-35-62.7 33.94-9.1zm44.51 7.67 73.59-81.43-39.86-23.02zm59.51 163.33c6.98 0 12.66-5.67 12.66-12.64s-5.68-12.64-12.66-12.64c-6.94 0-12.62 5.67-12.62 12.64s5.67 12.64 12.62 12.64zm24.66-12.64c0 13.59-11.07 24.65-24.67 24.65-13.56 0-24.63-11.06-24.63-24.65s11.07-24.65 24.63-24.65c13.6 0 24.67 11.06 24.67 24.65zm12.58 0c0 20.53-16.7 37.22-37.24 37.22-20.5 0-37.2-16.69-37.2-37.22s16.7-37.22 37.2-37.22c20.54 0 37.24 16.69 37.24 37.22zm85.84-165.88v63.46h9.68v-63.46zm-104.5 63.46h74.57v-63.46h-1.47c-13.35 0-24.46 5.19-33 15.43zm-97.57 34.37c0-11.37 9.23-20.62 20.58-20.62h34.02c1.8 0 3.47-.79 4.61-2.16l60.6-72.61c10.9-13.01 25.61-19.9 42.55-19.9h49.37v5.45h-15.66c-3.31 0-6 2.69-6 6v75.47c0 3.31 2.7 6 6 6h15.68v84.41h-83.88c-2.98-24.32-23.77-43.22-48.88-43.22-25.07 0-45.86 18.9-48.84 43.22h-9.56c-11.35 0-20.58-9.25-20.58-20.62v-41.42zm178.14-22.36h-93.4c-2.33 0-4.45-1.35-5.43-3.46s-.65-4.6.82-6.39l48.35-57.88c10.78-12.91 25.36-19.74 42.19-19.74h7.47c3.35 0 6 2.69 6 6v75.47c0 3.31-2.65 6-6 6zm-297.55 75.07c12.95 0 23.44 10.51 23.44 23.43s-10.5 23.42-23.44 23.42c-12.9 0-23.4-10.51-23.4-23.42 0-12.93 10.5-23.43 23.4-23.43zm0-10.8c18.91 0 34.22 15.36 34.22 34.23s-15.31 34.22-34.22 34.22c-18.87 0-34.22-15.35-34.22-34.22 0-18.88 15.35-34.23 34.22-34.23zm0 22.79c6.33 0 11.43 5.13 11.43 11.43s-5.1 11.43-11.43 11.43c-6.29 0-11.39-5.13-11.39-11.43s5.1-11.43 11.39-11.43zm-111.04-111.35h-15.8v-38.72c5.1-1.02 10.41-1.82 15.8-2.39zm40.6 0v-41.1c40.31 4.28 71.96 21.29 77.35 41.1zm84.16 12.01h-90.17c-3.31 0-6-2.69-6-6v-53.66c0-1.67.69-3.25 1.92-4.39s2.86-1.72 4.53-1.6c55.46 3.94 95.73 29.03 95.73 59.65 0 3.31-2.7 6-6.01 6z" fill-rule="evenodd" fill="#ffffff" fill-opacity="1" data-original-color="#000000ff" stroke="none" stroke-opacity="1"/></g></svg>