<svg id="Glyph" viewBox="0 0 64 64" xmlns="http://www.w3.org/2000/svg" width="300" height="300" version="1.1" xmlns:xlink="http://www.w3.org/1999/xlink" xmlns:svgjs="http://svgjs.dev/svgjs"><g width="100%" height="100%" transform="matrix(1,0,0,1,0,0)"><path d="m21.96 20.4c1.2-1 2.94-.92 4.04.18l3.3 3.3 4.48-4.93c1.13-1.25 3.3-1.25 4.44 0l6.78 7.46v-12.41h-26v8.87l2.96-2.46zm8.04-3.4c.55 0 1 .45 1 1s-.45 1-1 1-1-.45-1-1 .45-1 1-1zm-1.74 11 7-7.7c.38-.42 1.1-.42 1.48 0l7 7.7zm8.74 8h2v14h-14v-14h2v10c0 .55.45 1 1 1h8c.55 0 1-.45 1-1zm-8 9v-9h6v9zm-3.44-17h-6.56v-2.53l4.24-3.53c.4-.33.98-.31 1.35.06l3.37 3.37-2.39 2.63zm22.44-21h-32c-1.65 0-3 1.35-3 3v43c0 1.65 1.35 3 3 3h32c1.65 0 3-1.35 3-3v-43c0-1.65-1.35-3-3-3zm-5 29h-2v15c0 .55-.45 1-1 1h-16c-.55 0-1-.45-1-1v-15h-2c-.55 0-1-.45-1-1s.45-1 1-1h22c.55 0 1 .45 1 1s-.45 1-1 1zm4-7s0 .02 0 .02c0 .08-.03.15-.04.22-.01.05-.02.11-.04.16s-.06.09-.09.13c-.04.07-.08.13-.14.19 0 0 0 .01-.01.02-.05.04-.11.06-.16.1-.05.03-.09.07-.14.09-.12.05-.24.07-.37.07h-28c-.55 0-1-.45-1-1v-16c0-.55.45-1 1-1h28c.55 0 1 .45 1 1v16z" fill="#ffffff" fill-opacity="1" data-original-color="#000000ff" stroke="none" stroke-opacity="1"/></g></svg>