<?xml version="1.0"?>
<svg xmlns="http://www.w3.org/2000/svg" data-name="Layer 1" id="Layer_1" viewBox="0 0 64 64"><title/><path d="M61,27H58.536A27.022,27.022,0,0,0,54.3,16.776l1.746-1.747a1,1,0,0,0,0-1.414L50.385,7.958a1,1,0,0,0-1.414,0L47.224,9.7A27.022,27.022,0,0,0,37,5.464V3a1,1,0,0,0-1-1H28a1,1,0,0,0-1,1V5.464A27.022,27.022,0,0,0,16.776,9.7L15.029,7.958a1,1,0,0,0-1.414,0L7.958,13.615a1,1,0,0,0,0,1.414L9.7,16.776A27.022,27.022,0,0,0,5.464,27H3a1,1,0,0,0-1,1v8a1,1,0,0,0,1,1H5.464A27.022,27.022,0,0,0,9.7,47.224L7.958,48.971a1,1,0,0,0,0,1.414l5.657,5.657a1,1,0,0,0,1.414,0L16.776,54.3A27.022,27.022,0,0,0,27,58.536V61a1,1,0,0,0,1,1h8a1,1,0,0,0,1-1V58.536A27.022,27.022,0,0,0,47.224,54.3l1.747,1.746a1,1,0,0,0,1.414,0l5.657-5.657a1,1,0,0,0,0-1.414L54.3,47.224A27.022,27.022,0,0,0,58.536,37H61a1,1,0,0,0,1-1V28A1,1,0,0,0,61,27Zm-1,8H57.693a1,1,0,0,0-.988.848,25,25,0,0,1-4.519,10.9,1,1,0,0,0,.1,1.3l1.636,1.636-4.243,4.243-1.636-1.636a1,1,0,0,0-1.3-.1,25,25,0,0,1-10.9,4.519,1,1,0,0,0-.848.988V60H29V57.693a1,1,0,0,0-.848-.988,25,25,0,0,1-10.9-4.519,1,1,0,0,0-1.3.1l-1.636,1.636-4.243-4.243,1.636-1.636a1,1,0,0,0,.1-1.3A25,25,0,0,1,7.3,35.848,1,1,0,0,0,6.307,35H4V29H6.307a1,1,0,0,0,.988-.848,25,25,0,0,1,4.519-10.9,1,1,0,0,0-.1-1.3l-1.636-1.636,4.243-4.243,1.636,1.636a1,1,0,0,0,1.3.1A25,25,0,0,1,28.152,7.3,1,1,0,0,0,29,6.307V4h6V6.307a1,1,0,0,0,.848.988,25,25,0,0,1,10.9,4.519,1,1,0,0,0,1.3-.1l1.636-1.636,4.243,4.243-1.636,1.636a1,1,0,0,0-.1,1.3,25,25,0,0,1,4.519,10.9,1,1,0,0,0,.988.848H60Z"/><path d="M24.2,21.4l-6,8c-.016.022-.024.047-.038.07a.781.781,0,0,0-.053.075c-.008.017-.011.036-.018.054a.978.978,0,0,0-.044.125.952.952,0,0,0-.031.136.823.823,0,0,0-.008.131.918.918,0,0,0,.007.139.954.954,0,0,0,.027.129.99.99,0,0,0,.045.133c.008.018.01.038.018.055s.032.043.046.066.022.05.038.073l13,18a1,1,0,0,0,1.622,0l13-18c.016-.023.024-.049.038-.073s.033-.041.046-.066.01-.036.018-.054a1.054,1.054,0,0,0,.045-.134,1.14,1.14,0,0,0,.028-.129,1.078,1.078,0,0,0,.006-.139.8.8,0,0,0-.008-.13,1.178,1.178,0,0,0-.075-.262c-.007-.018-.01-.037-.018-.054a.781.781,0,0,0-.053-.075c-.014-.022-.022-.048-.038-.07l-6-8A1,1,0,0,0,39,21H25A1,1,0,0,0,24.2,21.4ZM32,46.292,20.956,31H43.044ZM38.5,23,43,29H21l4.5-6Z"/><path d="M32,51.5a17.993,17.993,0,0,1-2.2-35.852L28.4,16.7l1.2,1.6,4-3a1,1,0,0,0,0-1.6l-4-3-1.2,1.6,1.727,1.3A20,20,0,1,0,52,33.5H50A18.021,18.021,0,0,1,32,51.5Z"/></svg>
