<svg id="Layer_1" viewBox="0 0 64 64" xmlns="http://www.w3.org/2000/svg" data-name="Layer 1" width="300" height="300" version="1.1" xmlns:xlink="http://www.w3.org/1999/xlink" xmlns:svgjs="http://svgjs.dev/svgjs"><g width="100%" height="100%" transform="matrix(1,0,0,1,0,0)"><circle cx="19.746" cy="56.682" r="3.318" fill="#ffffff" fill-opacity="1" data-original-color="#000000ff" stroke="none" stroke-opacity="1"/><path d="m49.837 35.604c-.631-.615-1.463-.954-2.344-.954h-18.985c-1.771 0-3.477.387-5.039 1.09h6.204c.553 0 1 .447 1 1v6.753c0 .553-.447 1-1 1h-17.426c-1.776 0-3.221 1.444-3.221 3.221v4.682c0 1.893 1.535 3.433 3.423 3.433h2.065c.412-2.526 2.592-4.465 5.232-4.465s4.82 1.939 5.232 4.465h14.045c.412-2.526 2.592-4.465 5.232-4.465s4.82 1.939 5.232 4.465h2.064c1.888 0 3.423-1.54 3.423-3.433v-10.37c0-.918-.359-1.774-1.013-2.411l-4.124-4.01zm-9.617 7.288c0 .553-.447 1-1 1h-5.938c-.553 0-1-.447-1-1v-5.552c0-.553.447-1 1-1h5.938c.553 0 1 .447 1 1zm9.604 0c0 .553-.447 1-1 1h-5.938c-.553 0-1-.447-1-1v-5.552c0-.553.447-1 1-1h5.938c.553 0 1 .447 1 1z" fill="#ffffff" fill-opacity="1" data-original-color="#000000ff" stroke="none" stroke-opacity="1"/><path d="m34.282 38.341h3.938v3.552h-3.938z" fill="#ffffff" fill-opacity="1" data-original-color="#000000ff" stroke="none" stroke-opacity="1"/><path d="m18.865 39.326-2.508 3.167h12.316v-4.753h-8.285c-.544.483-1.062 1.002-1.523 1.586z" fill="#ffffff" fill-opacity="1" data-original-color="#000000ff" stroke="none" stroke-opacity="1"/><path d="m43.887 38.341h3.938v3.552h-3.938z" fill="#ffffff" fill-opacity="1" data-original-color="#000000ff" stroke="none" stroke-opacity="1"/><path d="m28.79 27.018c-1.986.542-3.717.314-5.138-.674-1.363-.948-2.173-2.438-2.648-3.757-.705 1.83-.981 3.832-.823 5.982.157 2.044 1.124 3.931 2.664 5.266 1.763-.762 3.677-1.185 5.663-1.185h18.985c.943 0 1.841.262 2.639.718 1.78-1.861 2.801-4.785 1.88-7.68-1.073 1.222-2.803 1.671-4.534 1.066-1.91-.669-3.524-2.652-2.914-5.151.9-3.709-.196-5.938-1.266-7.152-.283 2.356-2.08 4.19-4.536 4.609-2.488.424-4.747-.729-5.729-2.944-1.492-3.396.297-8.036 1.82-11-2.718 1.436-4.67 3.43-5.807 5.962-2.92 6.504.369 14.507.402 14.587.111.266.103.567-.023.826s-.357.451-.636.526z" fill="#ffffff" fill-opacity="1" data-original-color="#000000ff" stroke="none" stroke-opacity="1"/><circle cx="44.255" cy="56.682" r="3.318" fill="#ffffff" fill-opacity="1" data-original-color="#000000ff" stroke="none" stroke-opacity="1"/></g></svg>