<svg id="Layer_1" viewBox="0 0 64 64" xmlns="http://www.w3.org/2000/svg" data-name="Layer 1" width="300" height="300" version="1.1" xmlns:xlink="http://www.w3.org/1999/xlink" xmlns:svgjs="http://svgjs.dev/svgjs"><g width="100%" height="100%" transform="matrix(1,0,0,1,0,0)"><path d="m57.5263672 9.2758789c-14.9433594 1.5292969-23.2558594-3.1279297-25.5195312-4.6469727-2.2646484 1.5180664-10.5839844 6.1791992-25.5332031 4.6469727v19.3041992c0 9.3276367 3.9042969 17.9589844 10.7109375 23.6806641 4.0849609 3.418457 9.0712891 6.0078125 14.8232422 7.6977539 5.7431641-1.6914062 10.7246094-4.2807617 14.8095703-7.6992188 6.8046875-5.7202148 10.7089844-14.3515625 10.7089844-23.6791992v-19.3041992zm-25.5263672 40.612793c-2.5498047 0-4.9716797-.5448608-7.1687012-1.510376-.0708008-.019165-.1408691-.0437622-.208252-.0794678-.0246582-.0130615-.0390625-.0361328-.0620117-.0509033-5.8846436-2.7055054-10.045166-8.50354-10.4019775-15.3058472-.0045166-.0219116-.0183105-.0391846-.0213623-.0617065-.0073242-.0544434.0087891-.1044922.0102539-.1577148-.0097656-.2415771-.0366211-.4786987-.0366211-.7226562 0-3.2511597.885498-6.293396 2.4077148-8.9234619.0195312-.0286255.0263672-.0622559.0493164-.0892334.0026855-.0031738.0065918-.0043335.0093994-.0074463 2.144165-3.6516113 5.5391846-6.4728394 9.6000977-7.8765259.0574951-.0238037.1116943-.050354.1715088-.0628662 1.7785645-.5942993 3.6746826-.9291382 5.6506348-.9291382.8485107 0 1.6767578.079895 2.4941406.1947021.0092773-.0002441.0180664-.0042725.0273438-.0042725.0618896 0 .1159668.0244751.1748047.0352173 5.6328125.8574219 10.4169922 4.3299561 13.0371094 9.1577148.0145264.027771.0283203.0540161.0400391.0827637 1.3466797 2.5119629 2.1152344 5.378479 2.1152344 8.4225464 0 9.8637695-8.0244141 17.8886719-17.8886719 17.8886719z" fill="#ffffff" fill-opacity="1" data-original-color="#000000ff" stroke="none" stroke-opacity="1"/><path d="m43.4169922 23.9545898c-.0185547.0078125-.0625.0263672-.1171875.1635742.0478516.1459961.5458984.5776367.875.862793.8242188.7138672 1.9521484 1.690918 2.1962891 3.1938477.2880859 1.8295898-.8417969 3.6894531-1.7490234 5.184082-.3271484.5385742-.7753906 1.2758789-.8134766 1.5351562-.0507812.3666992-.1298828.8110352-.2167969 1.2954102-.1962891 1.0991211-.4414062 2.4667969-.4414062 3.5786133 0 1.8706055-1.1054688 2.9741211-2.1328125 3.2075195-.1513672.0341797-.3017578.0512695-.4482422.0512695-.6992188 0-1.3134766-.3837891-1.6328125-1.0507812-.1181641-.2382812-.1894531-.4272461-.2480469-.5839844-.0214844-.0595703-.0351562-.1098633-.0615234-.15625-.1435547-.1791992-1.3056641-.8271484-1.9296875-1.175293-2.7158203-1.5043945-2.7539062-2.7148438-2.5332031-4.0292969.0234375-.1425781.0498047-.2890625.0615234-.4423828.0439453-.5429688-.0458984-.9521484-.2441406-1.1240234-.2216797-.1899414-.4599609-.2114258-1.3076172-.2133789-.4658203-.0014648-1.0449219-.0029297-1.7529297-.0766602-4.2548828-.4428711-4.0644531-3.6743164-3.9736328-5.2270508l.0107422-.1816406c.1123047-2.0405273 1.6523438-3.5239258 2.9248047-4.4086914 1.5498047-1.1010742 2.7753906-.8945312 4.7724609-.0576172.6279297.262207 1.1630859.3095703 1.5429688.140625.2949219-.1318359.515625-.4038086.65625-.8071289.0058594-.043457-.0546875-.3173828-.4570312-.7207031-.6630859-.6665039-1.5625-1.003418-1.8945312-.9638672-1.2099609.1621094-2.1777344-.0605469-2.8837891-.6660156-.6884766-.5913086-1.0478516-1.4804688-1.0683594-2.6425781-.0083008-.7373047.4750977-1.5839233 1.4257812-2.5276489-1.3677979.0020142-2.6887207.1949463-3.9555664.5234985.2819824.809021.2819824 1.6958618-.3540039 2.395752-.3203125.3554688-.7236328.6420898-1.1142578.9199219-.921875.6552734-1.7177734 1.2211914-1.8378906 2.690918-.1054688 1.2983398-.890625 2.3432617-2.1542969 2.8666992-.5810547.2407227-1.2265625.3569336-1.8876953.3569336-1.0007324 0-2.036377-.2753906-2.9578857-.7766113-.9747314 2.0062256-1.5432129 4.2408447-1.5882568 6.6065674 1.6201172.0380859 3.557373.6240234 3.888916 2.6383057.2773438 1.6904297.5986328 1.7963867.7041016 1.8310547l.6445312.2089844c1.8359375.5898438 3.421875 1.0991211 3.4453125 3.1289062.0068359.6254883-.2119141 1.1191406-.3886719 1.5161133-.2529297.5693359-.2363281.5893555-.0439453.8300781.1474609.184082.3740234.3828125.6152344.5927734.8731689.7631836 2.2636719 1.9828491 1.4311523 4.4164429 1.7381592.6547241 3.6123047 1.0298462 5.5766602 1.0298462 8.7607422 0 15.8886719-7.1274414 15.8886719-15.8886719 0-2.625-.6505127-5.097168-1.7824707-7.2810669-.8487549-.3630981-2.2392578-.9536133-2.689209-.7643433z" fill="#ffffff" fill-opacity="1" data-original-color="#000000ff" stroke="none" stroke-opacity="1"/><path d="m23.6757812 43.9487305c-.2958984-.2587891-.6015625-.5258789-.8613281-.8496094-.9677734-1.2104492-.5-2.2626953-.2216797-2.8911133.1181641-.2641602.21875-.4921875.2167969-.6816406-.0058594-.5-.1582031-.6376953-2.0576172-1.2475586l-.6591797-.2138672c-.9462891-.3120117-1.6582031-1.0112305-2.0507812-3.4067383-.1176758-.7199707-1.0750732-.9083252-1.8342285-.9433594.5773926 5.3533325 3.8243408 9.913269 8.3790283 12.3276367.2984619-1.015686-.166626-1.4437256-.9110107-2.09375z" fill="#ffffff" fill-opacity="1" data-original-color="#000000ff" stroke="none" stroke-opacity="1"/><path d="m34.2333984 19.9672852c1.3310547-.1845703 3.0253906.8144531 3.8964844 1.8813477.6621094.8115234.8798828 1.6791992.6132812 2.4428711-.3232422.9296875-.9208984 1.6132812-1.7285156 1.9746094-.625.2792969-1.6738281.4848633-3.1308594-.1206055-1.7363281-.7294922-2.1132812-.6762695-2.8505859-.1518555-.75.5219727-2.0068359 1.5825195-2.0791016 2.8828125l-.0107422.1884766c-.1044922 1.7827148-.0546875 2.8876953 2.1845703 3.1206055.6074219.0629883 1.1083984.0644531 1.5517578.065918.9257812.0024414 1.8017578.0048828 2.6064453.6982422.7089844.6103516 1.03125 1.578125.9335938 2.7988281-.0175781.2128906-.0498047.4160156-.0830078.6137695-.1132812.6708984-.1699219 1.0073242 1.5322266 1.949707 2.2167969 1.2363281 2.5566406 1.4736328 2.8945312 2.3833008.0292969.0791016.0625.1704102.1123047.2807617.1796875-.125.4746094-.4931641.4746094-1.2080078 0-1.2895508.2617188-2.7539062.4726562-3.9306641.0810547-.4560547.15625-.875.2060547-1.2280273.0986328-.6674805.5332031-1.3828125 1.0830078-2.2885742.7382812-1.2158203 1.6572266-2.7290039 1.4833984-3.8305664-.1269531-.7817383-.8398438-1.3999023-1.5302734-1.9975586-.8339844-.7226562-1.9765625-1.7128906-1.4257812-3.1064453.2363281-.6030273.6533203-1.0454102 1.2050781-1.2763672.5159912-.2164917 1.0870361-.2208252 1.6838379-.1138916-2.3618164-2.9050903-5.7285156-4.9508057-9.5643311-5.6276855-1.5769043 1.1835327-2.1790771 2.0276489-2.2142334 2.262085.0078125.3647461.0771484.8818359.3720703 1.1347656.3173828.2714844.8886719.2602539 1.3115234.2021484z" fill="#ffffff" fill-opacity="1" data-original-color="#000000ff" stroke="none" stroke-opacity="1"/><path d="m21.7958984 23.6616211c.5693359-.2363281.8808594-.6333008.9248047-1.1816406.1972656-2.3979492 1.6875-3.4575195 2.6738281-4.1586914.3154297-.2241211.6132812-.4360352.7890625-.6308594.0437012-.048584.0141602-.2223511-.0681152-.4363403-3.0583496 1.2250977-5.6472168 3.3695679-7.425293 6.0960693 1.0935059.593689 2.3161621.6387939 3.1057129.3114624z" fill="#ffffff" fill-opacity="1" data-original-color="#000000ff" stroke="none" stroke-opacity="1"/></g></svg>