<?xml version="1.0"?>
<svg xmlns="http://www.w3.org/2000/svg" data-name="Layer 1" id="Layer_1" viewBox="0 0 512 512"><title/><path d="M434.63,225.18H77.37a4.75,4.75,0,0,0-4.75,4.75V436.77a4.75,4.75,0,0,0,4.75,4.75H434.63a4.75,4.75,0,0,0,4.75-4.75V229.93A4.75,4.75,0,0,0,434.63,225.18ZM429.88,432H82.12V234.68H429.88Z"/><path d="M102.71,374.57a36.89,36.89,0,0,1,36.86,36.86,4.75,4.75,0,0,0,4.75,4.75H367.69a4.75,4.75,0,0,0,4.75-4.75,36.89,36.89,0,0,1,36.86-36.86,4.75,4.75,0,0,0,4.75-4.75V296.88a4.75,4.75,0,0,0-4.75-4.75,36.9,36.9,0,0,1-36.86-36.86,4.75,4.75,0,0,0-4.75-4.75H144.32a4.75,4.75,0,0,0-4.75,4.75,36.9,36.9,0,0,1-36.86,36.86A4.75,4.75,0,0,0,98,296.88v72.94A4.75,4.75,0,0,0,102.71,374.57ZM363.19,260a46.42,46.42,0,0,0,41.36,41.37v63.92a46.42,46.42,0,0,0-41.36,41.36h-68.8a82.71,82.71,0,0,0,0-146.65ZM256,406.67a73.33,73.33,0,1,1,73.32-73.32A73.4,73.4,0,0,1,256,406.67ZM107.46,301.39A46.42,46.42,0,0,0,148.82,260h68.79a82.71,82.71,0,0,0,0,146.65H148.82a46.42,46.42,0,0,0-41.36-41.36Z"/><path d="M280,340.77a21.48,21.48,0,0,0-6.08-6.51,27.3,27.3,0,0,0-9.32-4v-28.9a10.79,10.79,0,0,1,2.45,1.5,15.07,15.07,0,0,1,3.2,3.53,16.29,16.29,0,0,1,1.91,4.21A26.27,26.27,0,0,1,273,315c.29,2.79,1.87,4.36,4.34,4.36h.24c1.38-.06,3.83-.73,4.55-4.94-.13-6.47-1.94-11.75-5.38-15.69a21.87,21.87,0,0,0-12.13-7v-6.42a5,5,0,0,0-1.77-4.13,5.26,5.26,0,0,0-6.91.05,5.09,5.09,0,0,0-1.62,4.08v5.85a30.5,30.5,0,0,0-8.47,2.6,27.43,27.43,0,0,0-7.7,5.45,22,22,0,0,0-5,7.68,20.47,20.47,0,0,0-1.28,9.31c.7,6.3,3.1,11.43,7.14,15.26,3.74,3.55,8.87,5.8,15.26,6.7V366c-4.48-.54-8-1.93-10.52-4.15a16.4,16.4,0,0,1-5.39-8.6,3.8,3.8,0,0,0-1.66-3.13,6.13,6.13,0,0,0-3-.88,4.06,4.06,0,0,0-3.93,1.34,4.27,4.27,0,0,0-.52,4s0,0,0,0a23.41,23.41,0,0,0,3,8.37,22.91,22.91,0,0,0,5.84,6.42,28.24,28.24,0,0,0,8,4.09,36.63,36.63,0,0,0,8.17,1.68v6.26a5,5,0,0,0,5.1,5.4,5.42,5.42,0,0,0,3.43-1.28,5,5,0,0,0,1.77-4.12v-6.44a25,25,0,0,0,6.86-2,17.36,17.36,0,0,0,6.09-4.53,22.07,22.07,0,0,0,5.34-12.8,50.09,50.09,0,0,0-.35-7.23A20.46,20.46,0,0,0,280,340.77Zm-6.24,14.65v0a11.23,11.23,0,0,1-.42,2.56,10.2,10.2,0,0,1-4.88,6.05,13.18,13.18,0,0,1-3.86,1.5V340a14.29,14.29,0,0,1,6.59,4.64C273,347.09,273.89,350.71,273.78,355.42Zm-29.21-32.16a10.7,10.7,0,0,1-2.18-3.66,17,17,0,0,1-.85-3.87,14.35,14.35,0,0,1,.79-5.81A14.88,14.88,0,0,1,245.2,305a15.58,15.58,0,0,1,4.58-3.28,16.55,16.55,0,0,1,4.54-1.33v28.07a21.77,21.77,0,0,1-5.45-1.93A15.65,15.65,0,0,1,244.57,323.26Z"/><path d="M101.25,209.92h309.5a4.75,4.75,0,0,0,0-9.5H101.25a4.75,4.75,0,1,0,0,9.5Z"/><path d="M118.6,79.23l110.65,70.22a4.73,4.73,0,0,0,6.22-1l50.84-62.18,90.16,66.89H339.59a4.75,4.75,0,0,0,0,9.5h51.26a4.72,4.72,0,0,0,2-.46c.17-.08.3-.21.47-.31a4.58,4.58,0,0,0,1.14-1c.07-.08.16-.11.22-.19a4.23,4.23,0,0,0,.23-.48,4.45,4.45,0,0,0,.42-.88,5.22,5.22,0,0,0,.19-.94,4.52,4.52,0,0,0,.11-.53V106.65a4.76,4.76,0,0,0-9.51,0v41.81L288.34,75.94a4.74,4.74,0,0,0-6.51.81l-51,62.43-107.09-68a4.75,4.75,0,1,0-5.09,8Z"/></svg>
