<svg id="Icons" height="300" viewBox="0 0 60 60" width="300" xmlns="http://www.w3.org/2000/svg" version="1.1" xmlns:xlink="http://www.w3.org/1999/xlink" xmlns:svgjs="http://svgjs.dev/svgjs"><g width="100%" height="100%" transform="matrix(1,0,0,1,0,0)"><path d="m3 56h22v-8h-11a1 1 0 0 1 -2 0v-6a1 1 0 0 1 2 0h11v-18.729l-12.034-20.677a1.217 1.217 0 0 0 -1.458-.522l-6.846 2.489a1 1 0 0 0 -.6.607.985.985 0 0 0 .086.848c.187.31.387.628.6.96 1.792 2.852 4.252 6.758 4.252 15.024a15.269 15.269 0 0 1 -6.516 12.338.991.991 0 0 0 -.484.862v6.8h6a1 1 0 0 1 2 0v6a1 1 0 0 1 -2 0h-6v7a1 1 0 0 0 1 1z" fill="#ffffff" fill-opacity="1" data-original-color="#000000ff" stroke="none" stroke-opacity="1"/><path d="m14 44h11v2h-11z" fill="#ffffff" fill-opacity="1" data-original-color="#000000ff" stroke="none" stroke-opacity="1"/><path d="m2 44h6v2h-6z" fill="#ffffff" fill-opacity="1" data-original-color="#000000ff" stroke="none" stroke-opacity="1"/><path d="m27 44v2h3.051c-.022-.332-.051-.662-.051-1s.029-.668.051-1z" fill="#ffffff" fill-opacity="1" data-original-color="#000000ff" stroke="none" stroke-opacity="1"/><path d="m30.3 48h-3.3v8h7.837a14.982 14.982 0 0 1 -4.537-8z" fill="#ffffff" fill-opacity="1" data-original-color="#000000ff" stroke="none" stroke-opacity="1"/><path d="m47.853 6.016a.985.985 0 0 0 .086-.848 1 1 0 0 0 -.6-.607l-6.849-2.49a1.213 1.213 0 0 0 -1.456.527l-12.034 20.673v18.729h3.3a15.026 15.026 0 0 1 14.7-12c.131 0 .258.016.388.02a14.892 14.892 0 0 1 -2.388-8.02c0-8.267 2.46-12.173 4.257-15.025.209-.331.409-.649.596-.959z" fill="#ffffff" fill-opacity="1" data-original-color="#000000ff" stroke="none" stroke-opacity="1"/><path d="m26 4c-4.686 0-7.935-.18-10.128-.388l10.128 17.401 10.128-17.4c-2.193.207-5.442.387-10.128.387z" fill="#ffffff" fill-opacity="1" data-original-color="#000000ff" stroke="none" stroke-opacity="1"/><path d="m45 32a13 13 0 1 0 13 13 13.015 13.015 0 0 0 -13-13zm5.864 7.5-7 12a1 1 0 0 1 -.736.488 1.113 1.113 0 0 1 -.128.012 1 1 0 0 1 -.707-.293l-3-3a1 1 0 0 1 1.414-1.414l2.083 2.082 6.346-10.875a1 1 0 1 1 1.728 1z" fill="#ffffff" fill-opacity="1" data-original-color="#000000ff" stroke="none" stroke-opacity="1"/></g></svg>