<svg id="Layer_3" enable-background="new 0 0 60 60" viewBox="0 0 60 60" xmlns="http://www.w3.org/2000/svg" width="300" height="300" version="1.1" xmlns:xlink="http://www.w3.org/1999/xlink" xmlns:svgjs="http://svgjs.dev/svgjs"><g width="100%" height="100%" transform="matrix(1,0,0,1,0,0)"><path d="m15.475 43.38v-33.77h-2.59c-2.66 0-4.82 2.16-4.82 4.81v30.96c1.23-1.24 2.94-2 4.82-2z" fill="#ffffff" fill-opacity="1" data-original-color="#000000ff" stroke="none" stroke-opacity="1"/><path d="m42.965 43.56v-16.67c-.33.03-.66.05-1 .05-6.6 0-11.97-5.37-11.97-11.97 0-1.93.47-3.75 1.28-5.36h-13.8v33.77h24.49c.35 0 .69.07 1 .18z" fill="#ffffff" fill-opacity="1" data-original-color="#000000ff" stroke="none" stroke-opacity="1"/><path d="m12.885 55h29.08c.55 0 1.02-.44 1.02-.99 0-.49-.33-.89-.78-.98-.07-.02-.14-.03-.22-.03-.2-.14-.66-1.1-.66-2.81 0-1.75.48-2.71.64-2.81.55 0 1-.45 1-1s-.45-1-1-1h-29.08c-2.66 0-4.82 2.16-4.82 4.81s2.16 4.81 4.82 4.81z" fill="#ffffff" fill-opacity="1" data-original-color="#000000ff" stroke="none" stroke-opacity="1"/><path d="m41.965 24.94c5.49 0 9.97-4.47 9.97-9.97s-4.48-9.97-9.97-9.97c-5.5 0-9.97 4.47-9.97 9.97s4.47 9.97 9.97 9.97zm.3-9.39c.4-.39 1.03-.39 1.42 0l.29.29v-4.14c0-.56.45-1 1-1s1 .44 1 1v4.14l.29-.29c.39-.39 1.02-.39 1.41 0s.39 1.02 0 1.41l-1.95 1.95-.05.05c-.19.19-.45.29-.7.29-.09 0-.17-.01-.25-.04-.05 0-.09-.02-.14-.04-.11-.05-.22-.12-.32-.21l-2-2c-.39-.39-.39-1.02 0-1.41zm-6.02-2.57 2-1.99c.09-.09.2-.17.32-.21.06-.03.12-.05.19-.06.32-.07.66.03.9.27l.05.05 1.95 1.94c.39.39.39 1.03 0 1.42-.2.19-.45.29-.71.29-.25 0-.51-.1-.71-.29l-.28-.28v4.13c0 .55-.45 1-1 1-.56 0-1-.45-1-1v-4.14l-.29.29c-.39.39-1.03.39-1.42 0s-.39-1.03 0-1.42z" fill="#ffffff" fill-opacity="1" data-original-color="#000000ff" stroke="none" stroke-opacity="1"/></g></svg>